<?xml version="1.0" encoding="UTF-8" standalone="no"?>
<!DOCTYPE svg PUBLIC "-//W3C//DTD SVG 1.1//EN" "http://www.w3.org/Graphics/SVG/1.1/DTD/svg11.dtd">
<svg version="1.1" xmlns="http://www.w3.org/2000/svg" xmlns:xlink="http://www.w3.org/1999/xlink" preserveAspectRatio="xMidYMid meet" viewBox="0 0 160 230" width="50" height="50">
    <defs>
        <path d="M83.43 0.03L84.39 0.05L85.35 0.09L86.31 0.14L87.27 0.2L88.22 0.27L89.18 0.35L90.13 0.43L91.08 0.53L92.03 0.64L92.98 0.76L93.92 0.88L94.86 1.02L95.8 1.17L96.74 1.32L97.67 1.49L98.6 1.66L99.53 1.85L100.45 2.04L101.37 2.25L102.28 2.46L103.2 2.68L104.11 2.91L105.01 3.15L105.91 3.4L106.8 3.66L107.7 3.93L108.58 4.21L109.46 4.5L110.34 4.8L111.21 5.1L112.08 5.42L112.94 5.74L113.79 6.07L114.64 6.41L115.49 6.76L116.32 7.12L117.15 7.49L118.93 8.23L120.68 8.98L122.39 9.73L124.06 10.5L125.7 11.28L127.3 12.07L128.87 12.87L130.4 13.68L131.9 14.51L133.37 15.36L134.8 16.22L136.19 17.1L137.56 17.99L138.89 18.9L140.19 19.83L141.45 20.78L142.69 21.75L143.89 22.74L145.06 23.75L146.2 24.79L147.3 25.85L148.38 26.93L149.43 28.03L150.44 29.17L151.42 30.32L152.38 31.51L153.3 32.72L154.2 33.96L155.06 35.23L155.9 36.53L156.71 37.86L157.49 39.22L158.24 40.61L158.96 42.04L159.66 43.49L160.32 44.99L160.96 46.52L161.58 48.08L162.16 49.68L162.72 51.32L163.14 52.81L163.53 54.28L163.9 55.71L164.25 57.12L164.58 58.5L164.88 59.86L165.15 61.2L165.4 62.53L165.62 63.85L165.81 65.15L165.98 66.45L166.12 67.74L166.22 69.04L166.3 70.33L166.34 71.63L166.36 72.94L166.34 74.26L166.29 75.59L166.2 76.94L166.08 78.31L165.93 79.7L165.74 81.11L165.51 82.55L165.25 84.02L164.94 85.53L164.6 87.07L164.22 88.65L163.8 90.27L163.34 91.93L162.83 93.65L162.29 95.41L161.7 97.23L161.07 99.11L160.39 101.04L159.67 103.03L158.9 105.09L158.09 107.22L157.22 109.42L156.32 111.69L155.36 114.04L155.06 114.75L154.75 115.47L154.43 116.21L154.09 116.95L153.75 117.71L153.39 118.48L153.03 119.25L152.65 120.04L152.27 120.83L151.89 121.64L151.5 122.44L151.11 123.26L150.71 124.08L150.31 124.91L149.91 125.74L149.51 126.57L149.11 127.41L148.72 128.25L148.33 129.09L147.94 129.93L147.55 130.77L147.17 131.62L146.8 132.46L146.44 133.3L146.09 134.14L145.74 134.97L145.41 135.81L145.09 136.64L144.78 137.46L144.49 138.28L144.21 139.09L143.94 139.9L143.7 140.7L143.47 141.49L143.26 142.27L143.07 143.05L142.9 143.81L142.76 144.56L142.63 145.3L142.53 146.04L142.31 147.49L142.02 148.88L141.64 150.2L141.21 151.46L140.7 152.66L140.13 153.8L139.51 154.88L138.83 155.9L138.1 156.87L137.32 157.77L136.5 158.62L135.64 159.42L134.75 160.16L133.83 160.84L132.87 161.48L131.9 162.06L130.9 162.59L129.89 163.07L128.86 163.5L127.83 163.88L126.79 164.21L125.75 164.5L124.72 164.74L123.69 164.94L122.67 165.09L121.67 165.2L120.68 165.27L119.72 165.29L118.78 165.28L117.87 165.22L116.99 165.12L116.16 164.99L115.36 164.82L114.61 164.61L113.9 164.37L113.25 164.09L112.66 163.78L112.12 163.44L111.65 163.06L111.25 162.65L110.97 162.29L110.73 161.9L110.52 161.48L110.36 161.03L110.23 160.57L110.13 160.08L110.06 159.57L110.01 159.04L109.99 158.5L109.99 157.94L110.01 157.37L110.04 156.78L110.09 156.19L110.14 155.59L110.21 154.98L110.28 154.36L110.35 153.75L110.43 153.13L110.5 152.51L110.56 151.89L110.62 151.28L110.67 150.67L110.7 150.07L110.72 149.48L110.72 148.9L110.7 148.32L110.66 147.77L110.59 147.22L110.49 146.7L110.36 146.19L110.2 145.7L110 145.23L109.76 144.79L109.48 144.37L109.16 143.98L108.79 143.62L108.37 143.28L107.9 142.98L107.37 142.71L106.78 142.48L106.28 142.38L105.81 142.32L105.37 142.3L104.96 142.32L104.57 142.38L104.2 142.47L103.86 142.58L103.52 142.72L103.2 142.89L102.88 143.07L102.57 143.28L102.26 143.5L101.95 143.73L101.62 143.97L101.29 144.21L100.94 144.46L100.58 144.72L100.19 144.97L99.79 145.21L99.35 145.45L98.88 145.68L98.38 145.9L97.83 146.1L97.25 146.28L96.62 146.44L95.94 146.58L95.21 146.69L94.42 146.77L93.57 146.82L92.66 146.84L91.69 146.82L90.64 146.75L89.52 146.65L88.32 146.5L87.04 146.29L85.68 146.04L84.23 145.74L82.69 145.37L81.05 144.95L79.32 144.46L79.24 144.72L79.17 144.98L79.12 145.24L79.08 145.5L79.05 145.75L79.03 146.01L79.02 146.28L79.02 146.54L79.03 146.8L79.04 147.06L79.07 147.32L79.1 147.58L79.14 147.84L79.18 148.1L79.23 148.36L79.28 148.62L79.33 148.88L79.39 149.14L79.45 149.4L79.51 149.65L79.57 149.91L79.63 150.16L79.69 150.42L79.75 150.67L79.8 150.92L79.86 151.17L79.91 151.41L79.95 151.66L79.99 151.9L80.02 152.14L80.05 152.38L80.07 152.62L80.08 152.86L80.09 153.09L80.08 153.32L80.07 153.55L80.04 153.77L80 154L79.95 154.22L79.89 154.43L79.82 154.63L79.74 154.82L79.64 155.01L79.53 155.19L79.41 155.37L79.28 155.54L79.14 155.71L78.99 155.87L78.83 156.03L78.66 156.19L78.49 156.34L78.31 156.48L78.13 156.62L77.94 156.76L77.75 156.89L77.55 157.01L77.36 157.13L77.16 157.25L76.97 157.36L76.77 157.46L76.58 157.56L76.38 157.66L76.2 157.75L76.01 157.84L75.83 157.92L75.66 157.99L75.49 158.06L75.33 158.13L75.18 158.19L75.04 158.24L74.9 158.29L74.78 158.34L74.67 158.38L74.57 158.41L74.48 158.44L74.41 158.47L74.35 158.49L74.31 158.5L74.29 158.51L74.28 158.51L74.24 161.54L74.23 161.61L74.21 161.69L74.18 161.77L74.15 161.85L74.1 161.93L74.04 162.01L73.98 162.1L73.9 162.19L73.82 162.27L73.74 162.36L73.64 162.45L73.54 162.53L73.44 162.62L73.33 162.7L73.22 162.78L73.1 162.86L72.98 162.93L72.86 163.01L72.73 163.08L72.6 163.15L72.47 163.21L72.35 163.27L72.22 163.32L72.09 163.37L71.96 163.41L71.84 163.45L71.71 163.48L71.59 163.51L71.47 163.52L71.36 163.54L71.25 163.54L71.14 163.53L71.04 163.52L70.95 163.5L70.86 163.47L70.78 163.43L70.7 163.38L70.64 163.32L70.58 163.25L70.53 163.17L69.52 161.21L69.49 163.55L69.48 163.65L69.47 163.75L69.44 163.84L69.4 163.93L69.36 164.02L69.3 164.1L69.24 164.18L69.17 164.26L69.1 164.34L69.01 164.41L68.92 164.47L68.83 164.54L68.73 164.59L68.63 164.65L68.52 164.7L68.41 164.75L68.3 164.79L68.18 164.84L68.07 164.87L67.95 164.9L67.83 164.93L67.71 164.96L67.59 164.98L67.48 164.99L67.36 165L67.25 165.01L67.14 165.01L67.03 165.01L66.93 165L66.83 164.99L66.74 164.98L66.65 164.95L66.57 164.93L66.49 164.9L66.42 164.86L66.36 164.82L66.3 164.78L66.26 164.73L66.22 164.67L66.19 164.61L65.62 162.99L65.73 164.98L65.73 165.02L65.71 165.05L65.69 165.1L65.65 165.15L65.6 165.2L65.54 165.26L65.46 165.32L65.38 165.38L65.29 165.45L65.19 165.51L65.09 165.58L64.98 165.65L64.86 165.73L64.73 165.8L64.6 165.87L64.47 165.94L64.33 166.01L64.19 166.08L64.05 166.15L63.9 166.22L63.76 166.28L63.62 166.34L63.47 166.4L63.33 166.46L63.19 166.51L63.05 166.55L62.91 166.59L62.78 166.63L62.65 166.66L62.53 166.68L62.41 166.7L62.3 166.71L62.2 166.72L62.11 166.71L62.02 166.7L61.94 166.68L61.87 166.65L61.82 166.61L61.77 166.56L61.74 166.5L60.94 164.62L61.02 166.16L61.02 166.29L61 166.42L60.96 166.53L60.9 166.64L60.83 166.74L60.75 166.84L60.65 166.92L60.54 167L60.41 167.07L60.28 167.14L60.14 167.2L59.99 167.25L59.83 167.29L59.67 167.33L59.5 167.37L59.32 167.39L59.14 167.42L58.96 167.43L58.77 167.44L58.58 167.45L58.4 167.45L58.21 167.45L58.03 167.44L57.84 167.43L57.66 167.41L57.49 167.39L57.32 167.37L57.16 167.34L57 167.31L56.85 167.27L56.71 167.24L56.58 167.2L56.46 167.15L56.35 167.11L56.26 167.06L56.18 167.01L56.11 166.96L56.06 166.9L56.02 166.85L56 166.79L55.65 164.74L55.34 167.06L55.32 167.08L55.29 167.11L55.23 167.13L55.17 167.16L55.08 167.19L54.98 167.21L54.86 167.24L54.73 167.26L54.59 167.29L54.44 167.31L54.27 167.34L54.1 167.36L53.92 167.38L53.73 167.4L53.54 167.42L53.34 167.44L53.14 167.45L52.93 167.47L52.72 167.48L52.51 167.49L52.3 167.5L52.09 167.5L51.88 167.5L51.68 167.5L51.48 167.49L51.28 167.48L51.09 167.47L50.91 167.46L50.73 167.44L50.57 167.41L50.41 167.38L50.27 167.35L50.14 167.31L50.02 167.27L49.91 167.22L49.82 167.17L49.75 167.11L49.69 167.05L49.65 166.98L49.64 166.9L49.62 166.81L49.61 166.71L49.6 166.62L49.59 166.53L49.58 166.44L49.57 166.35L49.56 166.26L49.55 166.18L49.55 166.09L49.54 166.01L49.53 165.93L49.52 165.85L49.51 165.78L49.5 165.7L49.5 165.63L49.49 165.56L49.48 165.5L49.48 165.43L49.47 165.37L49.46 165.31L49.46 165.25L49.45 165.19L49.45 165.14L49.44 165.09L49.44 165.04L49.43 165L49.43 164.95L49.42 164.91L49.42 164.84L49.41 164.78L49.41 164.72L49.4 164.67L49.4 166.62L49.39 166.72L49.36 166.81L49.32 166.89L49.26 166.97L49.18 167.03L49.08 167.09L48.98 167.14L48.86 167.18L48.73 167.22L48.59 167.25L48.43 167.27L48.27 167.28L48.11 167.29L47.93 167.29L47.75 167.29L47.56 167.28L47.37 167.27L47.18 167.25L46.98 167.23L46.78 167.2L46.59 167.18L46.39 167.14L46.19 167.11L46 167.07L45.81 167.03L45.63 166.98L45.45 166.93L45.27 166.89L45.11 166.84L44.95 166.79L44.8 166.74L44.67 166.68L44.54 166.63L44.43 166.58L44.33 166.53L44.24 166.48L44.17 166.43L44.11 166.38L44.07 166.33L44.05 166.29L43.55 164.28L43.4 166.12L43.37 166.19L43.32 166.26L43.25 166.32L43.16 166.38L43.05 166.43L42.93 166.47L42.79 166.51L42.63 166.54L42.46 166.57L42.28 166.59L42.09 166.6L41.88 166.61L41.67 166.62L41.45 166.62L41.23 166.62L40.99 166.61L40.76 166.6L40.52 166.58L40.28 166.56L40.04 166.54L39.79 166.51L39.55 166.48L39.32 166.45L39.08 166.41L38.86 166.37L38.63 166.33L38.42 166.28L38.21 166.24L38.01 166.19L37.83 166.14L37.65 166.08L37.49 166.03L37.35 165.97L37.21 165.91L37.1 165.85L37 165.8L36.92 165.73L36.87 165.67L36.83 165.61L36.81 165.55L36.71 163.2L36.13 164.81L36.08 164.89L36.02 164.96L35.94 165.03L35.84 165.09L35.73 165.15L35.6 165.2L35.47 165.25L35.32 165.29L35.16 165.33L34.99 165.36L34.81 165.39L34.63 165.41L34.43 165.43L34.24 165.44L34.03 165.45L33.83 165.45L33.62 165.45L33.41 165.44L33.2 165.43L32.98 165.41L32.77 165.38L32.56 165.35L32.35 165.32L32.15 165.27L31.95 165.22L31.76 165.17L31.57 165.11L31.39 165.04L31.22 164.97L31.06 164.89L30.91 164.8L30.77 164.71L30.64 164.61L30.53 164.51L30.43 164.39L30.34 164.28L30.27 164.15L30.22 164.02L30.19 163.88L30.17 163.73L30.04 160.13L29.01 162.93L28.87 163.05L28.72 163.16L28.57 163.25L28.41 163.34L28.25 163.41L28.08 163.48L27.91 163.54L27.73 163.59L27.55 163.63L27.37 163.66L27.18 163.68L27 163.69L26.81 163.7L26.62 163.7L26.44 163.69L26.25 163.68L26.07 163.65L25.88 163.62L25.7 163.59L25.53 163.55L25.35 163.5L25.18 163.45L25.02 163.39L24.86 163.32L24.7 163.25L24.55 163.18L24.41 163.1L24.27 163.02L24.15 162.93L24.03 162.84L23.92 162.75L23.81 162.65L23.72 162.55L23.64 162.45L23.57 162.34L23.51 162.24L23.46 162.13L23.43 162.02L23.41 161.9L23.4 161.79L23.97 158.55L22.46 161.2L22.38 161.32L22.28 161.43L22.17 161.53L22.05 161.62L21.92 161.69L21.77 161.75L21.61 161.8L21.45 161.84L21.28 161.87L21.1 161.89L20.91 161.9L20.72 161.89L20.52 161.88L20.32 161.86L20.11 161.83L19.9 161.8L19.7 161.75L19.49 161.7L19.28 161.64L19.07 161.57L18.86 161.5L18.66 161.42L18.46 161.33L18.27 161.24L18.08 161.14L17.9 161.04L17.72 160.93L17.55 160.82L17.4 160.71L17.25 160.59L17.11 160.46L16.99 160.34L16.87 160.21L16.77 160.08L16.69 159.94L16.62 159.81L16.56 159.67L16.53 159.53L16.51 159.4L16.51 159.26L16.68 156.52L15.65 158.19L15.57 158.25L15.49 158.3L15.4 158.36L15.32 158.41L15.23 158.46L15.14 158.5L15.05 158.54L14.96 158.58L14.86 158.62L14.77 158.65L14.67 158.68L14.57 158.7L14.46 158.72L14.36 158.74L14.25 158.75L14.14 158.76L14.04 158.77L13.93 158.77L13.81 158.76L13.7 158.76L13.58 158.74L13.47 158.72L13.35 158.7L13.23 158.67L13.11 158.64L12.99 158.6L12.87 158.56L12.74 158.51L12.62 158.46L12.49 158.4L12.37 158.33L12.24 158.26L12.11 158.18L11.98 158.1L11.86 158.01L11.72 157.91L11.59 157.81L11.46 157.7L11.33 157.59L11.2 157.46L11.11 157.37L11.02 157.28L10.95 157.18L10.87 157.07L10.8 156.96L10.74 156.85L10.68 156.72L10.63 156.59L10.58 156.46L10.54 156.31L10.51 156.16L10.49 156.01L10.47 155.84L10.46 155.67L10.45 155.49L10.46 155.31L10.47 155.11L10.49 154.91L10.51 154.7L10.55 154.48L10.6 154.26L10.65 154.02L10.71 153.78L10.78 153.53L10.87 153.26L10.96 152.99L11.06 152.71L11.17 152.42L11.29 152.12L11.43 151.82L11.57 151.5L11.72 151.17L11.89 150.83L12.07 150.48L12.26 150.12L12.46 149.74L12.67 149.36L12.89 148.97L13.13 148.56L13.38 148.14L13.38 148.14L13.36 148.14L13.34 148.14L13.31 148.13L13.28 148.12L13.24 148.11L13.19 148.1L13.14 148.08L13.08 148.05L13.02 148.02L12.96 147.99L12.89 147.95L12.82 147.9L12.76 147.85L12.69 147.79L12.62 147.72L12.55 147.64L12.48 147.55L12.42 147.46L12.36 147.35L12.3 147.24L12.24 147.11L12.19 146.97L12.15 146.82L12.11 146.66L12.08 146.49L12.05 146.3L12.03 146.11L12.02 145.89L12.02 145.66L12.03 145.42L12.05 145.16L12.08 144.89L12.12 144.6L12.18 144.29L12.24 143.97L12.32 143.63L12.42 143.27L12.53 142.89L12.65 142.49L12.69 142.28L12.74 142.08L12.8 141.87L12.87 141.66L12.94 141.46L13.02 141.25L13.11 141.05L13.2 140.85L13.3 140.65L13.41 140.45L13.51 140.25L13.63 140.06L13.74 139.86L13.86 139.67L13.98 139.48L14.1 139.29L14.23 139.1L14.35 138.91L14.47 138.73L14.6 138.54L14.72 138.36L14.84 138.18L14.96 138.01L15.07 137.83L15.19 137.66L15.3 137.49L15.4 137.32L15.5 137.15L15.6 136.99L15.68 136.83L15.77 136.67L15.84 136.51L15.91 136.35L15.97 136.2L16.03 136.05L16.07 135.91L16.1 135.76L16.13 135.62L16.14 135.48L16.14 135.35L16.11 134.89L16.06 134.45L15.99 134.03L15.89 133.62L15.77 133.24L15.63 132.88L15.47 132.53L15.3 132.19L15.1 131.87L14.89 131.57L14.66 131.28L14.42 131.01L14.16 130.74L13.9 130.49L13.62 130.25L13.33 130.02L13.03 129.8L12.72 129.59L12.4 129.39L12.08 129.2L11.75 129.01L11.42 128.83L11.08 128.66L10.74 128.49L10.4 128.32L10.06 128.16L9.72 128.01L9.38 127.85L9.05 127.7L8.71 127.54L8.39 127.39L8.06 127.24L7.75 127.09L7.44 126.93L7.14 126.77L6.85 126.61L6.57 126.45L6.3 126.28L6.04 126.11L5.8 125.93L4.95 125.32L4.17 124.7L3.47 124.07L2.84 123.44L2.29 122.79L1.8 122.14L1.38 121.47L1.01 120.8L0.71 120.12L0.47 119.43L0.28 118.73L0.14 118.02L0.05 117.31L0 116.58L0 115.85L0.04 115.1L0.12 114.35L0.23 113.58L0.37 112.81L0.54 112.03L0.74 111.24L0.96 110.43L1.21 109.62L1.47 108.8L1.75 107.97L2.04 107.13L2.34 106.28L2.64 105.42L2.96 104.55L3.27 103.68L3.58 102.79L3.89 101.89L4.19 100.98L4.48 100.06L4.76 99.13L5.03 98.19L5.28 97.25L5.51 96.29L5.71 95.32L5.89 94.34L6.01 93.62L6.09 92.9L6.14 92.2L6.14 91.51L6.11 90.82L6.05 90.15L5.97 89.48L5.86 88.82L5.72 88.16L5.57 87.51L5.4 86.87L5.22 86.24L5.03 85.61L4.83 84.98L4.62 84.36L4.42 83.75L4.21 83.13L4.01 82.53L3.81 81.92L3.62 81.32L3.45 80.72L3.29 80.12L3.15 79.53L3.03 78.93L2.93 78.34L2.86 77.75L2.82 77.15L2.81 76.56L2.84 75.97L2.91 75.37L3.01 74.78L3.16 74.18L3.36 73.58L3.6 72.97L3.9 72.37L4.26 71.76L4.67 71.15L5.14 70.53L5.67 69.91L6.28 69.28L7.13 66.39L7.95 63.61L8.73 60.94L9.49 58.38L10.23 55.92L10.94 53.57L11.64 51.31L12.32 49.14L13 47.06L13.67 45.06L14.34 43.15L15.02 41.32L15.7 39.55L16.4 37.86L17.11 36.24L17.84 34.68L18.6 33.17L19.38 31.72L20.19 30.33L21.04 28.98L21.93 27.68L22.86 26.41L23.84 25.19L24.87 23.99L25.95 22.83L27.1 21.69L28.3 20.57L29.58 19.47L30.92 18.39L32.34 17.31L33.84 16.24L35.43 15.18L37.1 14.12L38.86 13.05L40.71 11.97L42.67 10.88L44.72 9.78L46.89 8.65L49.16 7.51L51.55 6.34L52.18 6.04L52.81 5.75L53.45 5.46L54.11 5.19L54.76 4.92L55.43 4.65L56.1 4.39L56.79 4.14L57.47 3.9L58.17 3.66L58.87 3.43L59.57 3.21L60.29 3L61 2.79L61.73 2.59L62.45 2.39L63.18 2.21L63.92 2.03L64.66 1.86L65.4 1.69L66.15 1.54L66.9 1.39L67.65 1.24L68.4 1.11L69.16 0.98L69.92 0.86L70.68 0.75L71.44 0.64L72.2 0.55L72.96 0.46L73.72 0.38L74.48 0.3L75.24 0.24L76.01 0.18L76.77 0.13L77.52 0.09L78.28 0.06L79.04 0.03L79.79 0.01L80.54 0L81.5 0L82.47 0.01L83.43 0.03ZM39.57 105.31L39.25 105.38L38.95 105.48L38.67 105.6L38.41 105.75L38.18 105.92L37.97 106.13L37.8 106.36L37.43 107.05L37.04 107.96L36.63 109.04L36.22 110.29L35.8 111.67L35.38 113.15L34.96 114.71L34.54 116.32L34.14 117.96L33.75 119.59L33.38 121.19L33.03 122.74L32.7 124.21L32.41 125.57L32.15 126.79L31.93 127.85L31.75 128.72L31.61 129.38L31.53 129.79L31.5 129.94L31.56 130.2L31.63 130.45L31.73 130.69L31.84 130.92L31.96 131.14L32.1 131.35L32.24 131.55L32.39 131.73L32.54 131.91L32.69 132.06L32.84 132.21L32.99 132.34L33.13 132.46L33.25 132.57L33.37 132.65L33.47 132.73L33.55 132.79L33.61 132.83L33.65 132.85L33.67 132.86L33.67 132.81L33.68 132.67L33.71 132.44L33.74 132.13L33.78 131.76L33.83 131.32L33.89 130.83L33.96 130.29L34.05 129.71L34.14 129.11L34.24 128.48L34.36 127.84L34.48 127.19L34.62 126.54L34.77 125.9L34.93 125.28L35.11 124.68L35.29 124.11L35.49 123.59L35.7 123.12L35.93 122.68L36.21 122.22L36.52 121.75L36.86 121.27L37.23 120.78L37.62 120.29L38.03 119.81L38.44 119.33L38.85 118.86L39.26 118.42L39.66 117.99L40.04 117.59L40.4 117.22L40.73 116.88L41.03 116.59L41.28 116.33L41.49 116.13L41.65 115.98L41.75 115.88L41.78 115.85L41.48 116.8L41.25 117.77L41.08 118.76L40.97 119.76L40.91 120.77L40.9 121.78L40.94 122.79L41.01 123.8L41.12 124.8L41.25 125.79L41.41 126.77L41.59 127.73L41.78 128.66L41.98 129.57L42.18 130.45L42.38 131.29L42.57 132.1L42.75 132.87L42.91 133.59L43.05 134.26L43.07 134.25L43.14 134.23L43.24 134.18L43.39 134.12L43.56 134.05L43.77 133.96L44 133.86L44.25 133.75L44.53 133.62L44.82 133.49L45.12 133.34L45.44 133.19L45.76 133.02L46.08 132.85L46.4 132.68L46.72 132.49L47.03 132.3L47.33 132.11L47.62 131.92L47.89 131.72L48.24 131.29L48.52 130.64L48.72 129.77L48.86 128.71L48.93 127.5L48.94 126.14L48.89 124.68L48.78 123.12L48.61 121.5L48.39 119.84L48.11 118.16L47.79 116.49L47.41 114.85L46.99 113.27L46.53 111.78L46.03 110.38L45.49 109.12L44.91 108.02L44.3 107.09L43.65 106.36L43.42 106.17L43.17 105.99L42.89 105.83L42.59 105.69L42.28 105.57L41.95 105.46L41.62 105.37L41.27 105.31L40.93 105.26L40.58 105.24L40.23 105.24L39.9 105.26L39.57 105.31ZM70.17 74.08L69.59 74.15L68.68 74.34L67.83 74.6L67.04 74.92L66.31 75.3L65.63 75.73L64.99 76.22L64.41 76.75L63.86 77.33L63.36 77.95L62.89 78.6L62.46 79.28L62.06 79.99L61.69 80.73L61.35 81.48L61.02 82.25L60.72 83.03L60.44 83.82L60.17 84.62L59.91 85.41L59.66 86.2L59.41 86.99L59.17 87.76L58.93 88.51L58.68 89.25L58.43 89.96L58.16 90.64L57.89 91.3L57.6 91.91L57.13 92.93L56.75 93.9L56.45 94.84L56.22 95.76L56.08 96.64L56.01 97.49L56.02 98.32L56.1 99.13L56.24 99.92L56.46 100.69L56.74 101.45L57.09 102.19L57.5 102.93L57.97 103.65L58.5 104.38L59.08 105.09L59.72 105.81L60.42 106.53L61.16 107.25L61.95 107.98L62.79 108.71L63.67 109.46L64.6 110.22L65.56 111L66.57 111.79L67.61 112.61L68.69 113.44L69.8 114.31L71.02 115.2L72.26 116.02L73.51 116.75L74.79 117.41L76.07 117.99L77.36 118.49L78.64 118.92L79.93 119.29L81.21 119.58L82.47 119.81L83.73 119.97L84.96 120.07L86.17 120.11L87.34 120.09L88.49 120.01L89.6 119.88L90.67 119.69L91.7 119.45L92.67 119.16L93.59 118.83L94.46 118.44L95.26 118.02L96 117.55L96.67 117.04L97.26 116.49L97.77 115.91L98.2 115.29L98.55 114.64L98.95 113.72L99.34 112.82L99.71 111.95L100.06 111.1L100.38 110.27L100.69 109.45L100.98 108.65L101.24 107.86L101.48 107.08L101.71 106.31L101.91 105.54L102.09 104.78L102.24 104.01L102.38 103.25L102.49 102.49L102.59 101.72L102.66 100.94L102.7 100.15L102.73 99.35L102.73 98.54L102.72 97.71L102.67 96.86L102.61 96L102.52 95.11L102.41 94.19L102.28 93.25L102.12 92.29L101.94 91.28L101.76 90.88L101.53 90.47L101.27 90.04L100.97 89.62L100.64 89.18L100.27 88.74L99.86 88.3L99.42 87.85L98.96 87.4L98.46 86.94L97.93 86.49L97.37 86.03L96.79 85.58L96.18 85.12L95.55 84.67L94.9 84.22L94.22 83.78L93.52 83.34L92.8 82.9L92.06 82.47L91.31 82.05L90.54 81.63L89.75 81.23L88.95 80.83L88.14 80.44L87.31 80.07L86.47 79.7L85.63 79.35L84.98 79.08L84.35 78.8L83.73 78.52L83.11 78.23L82.51 77.95L81.91 77.66L81.32 77.37L80.74 77.08L80.17 76.8L79.6 76.52L79.03 76.25L78.48 75.98L77.92 75.73L77.37 75.49L76.82 75.26L76.27 75.04L75.72 74.84L75.17 74.66L74.63 74.5L74.08 74.36L73.53 74.24L72.98 74.14L72.42 74.07L71.87 74.03L71.31 74.01L70.74 74.03L70.17 74.08ZM17.72 72.92L16.73 73.4L15.73 74.07L14.72 74.95L13.7 76.04L12.68 77.35L11.93 78.48L11.34 79.54L10.89 80.53L10.57 81.48L10.36 82.39L10.25 83.28L10.22 84.15L10.25 85.01L10.33 85.88L10.44 86.77L10.57 87.69L10.7 88.65L10.82 89.66L10.91 90.73L10.95 91.87L10.93 93.1L10.84 94.42L10.65 95.85L10.35 97.4L9.93 99.08L9.37 100.89L9.08 101.97L8.96 102.99L8.99 103.95L9.17 104.85L9.49 105.69L9.93 106.46L10.48 107.18L11.14 107.83L11.9 108.42L12.75 108.95L13.67 109.41L14.66 109.81L15.71 110.15L16.81 110.41L17.94 110.62L19.11 110.76L20.29 110.83L21.48 110.83L22.67 110.77L23.85 110.63L25.01 110.43L25.69 110.28L26.3 110.12L26.84 109.94L27.33 109.76L27.76 109.57L28.13 109.38L28.45 109.19L28.72 109L28.95 108.81L29.14 108.63L29.3 108.45L29.42 108.28L29.52 108.12L29.59 107.97L29.63 107.83L29.67 107.71L29.68 107.61L29.69 107.52L29.69 107.46L29.69 107.42L29.69 107.41L29.9 106.59L30.11 105.83L30.32 105.12L30.52 104.46L30.72 103.84L30.93 103.26L31.14 102.72L31.36 102.21L31.6 101.73L31.86 101.28L32.13 100.84L32.43 100.42L32.76 100.01L33.12 99.61L33.52 99.22L33.95 98.83L34.43 98.43L34.95 98.02L35.52 97.61L36.14 97.18L36.81 96.72L37.29 96.33L37.58 95.79L37.7 95.12L37.66 94.34L37.49 93.47L37.21 92.52L36.82 91.51L36.34 90.46L35.79 89.38L35.2 88.29L34.56 87.2L33.91 86.14L33.26 85.12L32.61 84.16L32.01 83.27L31.44 82.48L30.95 81.79L30.53 81.22L30.21 80.8L30.01 80.53L29.94 80.44L29.47 79.63L28.96 78.81L28.39 77.98L27.78 77.17L27.12 76.38L26.42 75.63L25.69 74.93L24.91 74.29L24.11 73.73L23.27 73.25L22.4 72.87L21.51 72.6L20.59 72.46L19.65 72.46L18.69 72.61L17.72 72.92Z" id="skull-top" class="skull-whole">
        </path>

        <path d="M11.43 165.54C11.34 166 9.25 166.06 9.1 168.4C8.58 176.49 6.96 177.25 7.17 181.69C7.28 184.1 8.76 187.49 9.36 189.41C10.87 194.03 21.72 193.64 26.56 196.28C35.07 200.91 45.25 204.68 60.16 197.45C80.11 187.78 88.77 198.29 96.73 190.62C102.34 185.2 97.51 177.33 110.89 158.7C115.3 152.55 125.99 144.32 124.63 140.63C123.36 137.17 117.76 138.81 113.69 139.1C109.62 139.39 101.73 146.99 101.73 146.99C94.18 151.97 97.34 143.27 88.93 145.27C84.5 146.77 86.78 164.3 79.64 164.87C79.32 164.89 77.7 165.02 74.8 165.25C74.2 163.98 73.86 163.27 73.79 163.13C73.5 162.51 70.75 163.85 70.84 164.63C70.85 164.78 70.94 165.51 71.09 166.83C70.15 165.61 69.63 164.94 69.52 164.8C69.03 164.16 66.85 165.14 66.78 165.95C66.77 166.11 66.71 166.91 66.6 168.36C66.22 166.95 66 166.16 65.96 166.01C65.63 164.77 61.45 166.57 61.67 167.84C61.67 167.96 61.72 168.6 61.8 169.74C61.12 168.5 60.74 167.82 60.66 167.68C60.12 166.7 56.23 167.35 56.29 167.77C56.27 167.96 56.15 168.96 55.95 170.74C55.43 169.13 55.14 168.23 55.08 168.05C54.76 167.04 50.41 167.09 50.12 168.05C50.07 168.21 49.82 169.05 49.36 170.55C49.12 169.05 48.99 168.22 48.96 168.06C48.81 167.12 44.16 166.48 43.88 167.16C43.84 167.33 43.63 168.2 43.24 169.77C43.1 167.99 43.01 167 43 166.8C42.94 166.1 36.77 165.54 36.52 166.43C36.47 166.6 36.23 167.44 35.8 168.95C35.72 167.14 35.67 166.14 35.66 165.94C35.62 165.02 30.14 164.2 29.86 164.7C29.79 164.85 29.44 165.59 28.81 166.93C28.49 165.1 28.31 164.08 28.27 163.88C28.13 163.09 23.37 162.22 22.99 162.71C22.93 162.86 22.64 163.62 22.11 164.99C21.89 163.38 21.76 162.48 21.74 162.3C21.63 161.51 16.92 159.56 16.43 160.33C16.36 160.46 15.97 161.07 15.28 162.17C15.09 160.56 14.99 159.66 14.97 159.49C14.31 157.85 11.12 157.93 11.12 157.93C9.63 158.8 9.36 164.5 11.43 165.54Z" id="skull-bottom" class="skull-whole">
        </path>
    </defs>
<g id="skull">
    <g>
        <use xlink:href="#skull-top" opacity="1" fill="#484f4f" fill-opacity="1">
        </use>
        <g>
            <use xlink:href="#skull-top" opacity="1" fill-opacity="0" stroke="#000000" stroke-width="1" stroke-opacity="0">
            </use>
        </g>
    </g>

    <g>
        <use xlink:href="#skull-bottom" opacity="1" fill="#484f4f" fill-opacity="1">
        </use>
        <g>
            <use xlink:href="#skull-bottom" opacity="1" fill-opacity="0" stroke="#000000" stroke-width="1" stroke-opacity="0">
            </use>
        </g>
    </g>
</g>
</svg>